<svg width="800" height="800" viewBox="0 0 800 800" fill="none" xmlns="http://www.w3.org/2000/svg">
<path d="M400.461 121H212.82C156.704 121 119 158.441 119 214.167V601.535C119 619.928 125.907 680 214.844 680H681.923V121H400.461ZM377.012 144.286V367.1L319.576 315.154L255.804 368.454V144.308H377.034L377.012 144.286ZM212.82 144.286H232.332V418.478L318.96 346.107L400.483 419.811V144.286H658.495V528.596H212.842C182.992 528.596 158.794 537.443 142.472 552.909V214.145C142.472 171.701 170.101 144.264 212.842 144.264L212.82 144.286ZM214.844 656.714C161.082 656.714 145.529 632.488 142.934 609.311C142.978 573.355 169.089 551.904 212.82 551.904H658.473V656.714H214.844Z" fill="#251433"/>
</svg>
