<?xml version="1.0" encoding="UTF-8"?>
<!DOCTYPE svg PUBLIC "-//W3C//DTD SVG 1.1//EN" "http://www.w3.org/Graphics/SVG/1.1/DTD/svg11.dtd">
<!-- Creator: CorelDRAW 2020 (64-Bit) -->
<svg xmlns="http://www.w3.org/2000/svg" xml:space="preserve" width="12.7mm" height="12.7mm" version="1.1" style="shape-rendering:geometricPrecision; text-rendering:geometricPrecision; image-rendering:optimizeQuality; fill-rule:evenodd; clip-rule:evenodd"
viewBox="0 0 1270 1270"
 xmlns:xlink="http://www.w3.org/1999/xlink"
 xmlns:xodm="http://www.corel.com/coreldraw/odm/2003">
 <defs>
  <style type="text/css">
   <![CDATA[
    .fil1 {fill:#4A2E62}
    .fil0 {fill:white}
   ]]>
  </style>
 </defs>
 <g id="Слой_x0020_1">
  <metadata id="CorelCorpID_0Corel-Layer"/>
  <circle class="fil0" cx="635" cy="635" r="635"/>
  <path class="fil1" d="M569.76 208.24c38.55,8.61 102.19,32.83 228.05,118.29l0.01 0.02c-45.87,-15.79 -100.99,-14.8 -159.94,-1.29 -78.85,18.08 -183.43,74.93 -225.86,118.69 -35.8,28.82 -87.75,92.83 -97.22,115.19 -9.7,22.85 -20.44,69.66 -5.94,108.47 11.56,30.96 32.94,56.63 50.89,79.35 38.15,48.31 80.04,83.34 114.29,127.73 9.67,12.54 44.9,43.51 56.12,52.42 -0.32,3.76 -0.49,8.38 -0.49,14.24 0,22.73 -6.22,33.28 16.08,43.49 7.99,3.66 15.46,6.47 22.47,8.57 -1.2,7.26 -1.41,15.43 -0.22,23.9 3.06,21.76 11.54,56.47 22.28,88.98 13.75,1.71 27.69,2.79 41.8,3.24l-0.01 0c4.9,0.16 9.82,0.26 14.75,0.26 70.55,0 137.34,-16.08 196.9,-44.79 12.35,-34.92 36.5,-74.26 61.99,-94.93 35.38,-28.67 62.63,-33.66 61.72,-30.13 -0.73,2.85 -22.28,8.27 -53.81,34.57 -28.29,23.6 -42.91,53.52 -51.19,80.92l1.41 -0.77c5.74,-25.61 26.51,-48.55 46.06,-64.15 16.91,-13.47 46.44,-30.26 84.25,-42.36 11.77,-13.96 22.72,-28.64 32.76,-43.97 -31.4,4.52 -56.99,11.02 -81.58,20.06 -45.59,19.53 -80.5,68.28 -110.7,83.23 -12.45,6.17 -26.9,15.32 -35.06,14.89 5.27,-3.38 39.21,23.26 30.89,34.3 0.09,0.1 10.59,-24.75 13.31,-29.11 2.14,-7.15 9.57,-26.93 26.25,-44.42 26.19,-27.45 65.59,-54.8 74.45,-58.58 -27.15,10.06 -53.13,23.23 -84.44,40.28 -28.38,15.47 -51.15,34.11 -87.88,50.72 -39.79,-5.58 -91.01,45.42 -140.41,92.8 -5.1,-17.85 -10.07,-35.42 -15.52,-49.53 -7.1,-18.41 -6.7,-50.4 -7.71,-61 13.83,-1.79 24.17,-7.47 31.46,-14.79 29.12,-2.21 150.2,-27.51 261.38,-60.77 49.6,-14.84 98.2,-30.22 139.83,-41.34 2.42,-4.24 4.77,-8.53 7.06,-12.86 -44.85,10.56 -97.93,26.55 -151.08,42.45 -96.47,28.86 -199.84,44.16 -244.5,50.07 1.03,-4.21 1.38,-8.31 1.13,-12.01 11.67,0.87 36.24,-3.56 65.67,-10.45 100.76,-23.6 227.6,-69.98 337.05,-86.39 0.71,-1.5 1.4,-3 2.1,-4.5 -112.38,16.37 -235.93,57.4 -341.21,82.06 -35.15,8.23 -61.88,14.05 -62.4,12.86l-2.13 0.93c-2.15,-7.7 -7.7,-12.23 -15.92,-9.66 -16.89,5.27 5.06,-5.97 15.21,-16.7 7.28,-7.69 1.91,-20.87 -7.53,-30.54 27.51,12.89 67.97,33.11 73.76,30.15 0.79,-0.4 2.2,-0.6 3.75,-0.84l0.03 0.09 0.73 -0.2c1.63,-0.26 3.33,-0.58 4.58,-1.24l10.17 -2.69c32.48,-8.57 103.22,-26.54 126.17,-36.82 10.61,-2.49 18.66,-8.1 30.55,-11.83 12.97,-4.05 23.28,-4.78 32.34,-7 -13.42,-33.83 -30.06,-66.46 -32.46,-105.36 -3.25,-19.06 -19.86,-50.11 -25.31,-79.85 -1.68,-9.2 -1.14,-20.11 -0.06,-31.96 15.94,36.81 38.98,102.11 45.97,120.15 6.49,16.75 22.37,71.67 33.15,93.58 1.53,3.12 9.64,-5.51 23.32,-6.82 9.43,-0.91 17.23,0.13 17.37,-2.44 0.45,-8.59 -49.17,-121.42 -53.74,-143.56 -10.37,-50.15 -41.16,-130.13 -60.71,-176.61 -4.99,-11.84 -13.54,-48.32 -19.98,-71.91 -3.3,-19.29 -14.87,-67.2 -36.86,-70.8 -40.57,-9.31 -69.33,-14.4 -99.88,-14.39 -47.21,0.02 -83.1,10.44 -109.64,19.68 -24.43,8.5 -40.95,16.6 -51.11,22.57 -3.27,1.28 -6.67,2.74 -10.05,4.26 -65.83,29.63 -100.59,62.85 -152.17,113.26 -34.02,33.26 -36.91,57.43 -49.68,79.68 -3.43,5.96 -2.26,17.67 0.27,28.91 8.81,39.22 36.46,69.14 62.19,99.17 16.23,18.94 114.68,122.58 141.26,152.33 -1.36,2.18 -2.7,4.68 -4.01,7.55 -0.62,1.34 -1.21,2.57 -1.79,3.72 -65.81,-43.06 -160.13,-176.05 -200.05,-236.36 -23.47,-35.44 -9.17,-75.85 10.57,-107 54.12,-85.41 210.6,-186.92 298.67,-204.78 50.96,-10.35 104.97,-4.23 148.74,2.38 22.76,3.43 60.92,24.67 92.38,59.46 0.65,0.77 1.38,1.58 2.16,2.42 8.6,27.52 21.12,54.41 21.12,83.09 5.84,29.06 118.94,335.62 116.91,337.72 9.33,-2.52 22.05,-4.72 33.96,-6.42 21.65,-52.98 33.63,-110.95 33.63,-171.73 0,-250.76 -203.29,-454.05 -454.06,-454.05 -26.26,0 -52.01,2.27 -77.06,6.55zm-170.91 934.62c-89.94,-46.07 -165.45,-116.31 -217.93,-202.12 -50.79,-83.03 -80.05,-180.61 -80.05,-285 0,-9.36 0.26,-19.01 0.78,-28.94 0.5,-9.67 1.26,-19.26 2.26,-28.79l21.62 2.21c-0.96,9.16 -1.69,18.39 -2.17,27.68 -0.46,8.87 -0.7,18.15 -0.7,27.84 0,100.3 28.09,194 76.81,273.68 50.43,82.44 122.92,149.89 209.26,194.12l-9.88 19.32zm405.47 -1011.42c114.3,34.05 212.94,104.48 282.51,197.88 67.89,91.13 108.07,204.1 108.07,326.42 0,5.19 -0.11,11.12 -0.32,17.77 -0.2,6.27 -0.48,12.18 -0.83,17.72l-21.71 -1.37c0.38,-5.98 0.67,-11.67 0.83,-17.03 0.16,-4.91 0.24,-10.61 0.24,-17.09 0,-117.52 -38.57,-226.01 -103.73,-313.48 -66.77,-89.64 -161.5,-157.26 -271.27,-189.96l6.21 -20.86zm-340.39 995.63c-16.63,-6.7 -26.07,-4.22 -37.82,16.28 -11.86,20.73 -8.18,29.66 10.29,37.1 16.76,6.75 26.4,4.62 38.18,-16.14 11.87,-20.99 6.95,-30.15 -10.65,-37.24zm-5.17 12.37c5.49,2.21 5.47,5.17 -1.27,16.55 -7.33,12.4 -9.89,14.51 -15.7,12.18 -5.48,-2.22 -5.49,-5.09 1.36,-16.52 7.41,-12.37 9.96,-14.48 15.61,-12.21zm9.36 52.17l17.33 4.83 8.08 -18.41c2.79,1.13 5.78,2.22 8.74,3.04 14.52,4.05 21.03,1.81 26.94,-11.94 6.22,-14.52 1.59,-20.57 -15.34,-25.29 -10.27,-2.87 -15.1,-4.13 -22.52,-5.42l-23.23 53.19zm30.27 -24.84l5.48 -12.49 6.18 1.73c3.93,1.09 4.25,2.74 2.35,7.05 -2.7,6.25 -4.13,6.46 -8.23,5.31l-5.78 -1.6zm76.86 4.94l4.29 -12.08c-7.42,-2.48 -18.38,-4.61 -28.28,-6.46 -8.36,-1.56 -14.33,2.42 -16.82,9.83l-9.54 28.47c-2.82,8.71 0.48,16.02 9.8,17.75 8.85,1.65 19.8,3.78 27.86,4.18l2.68 -12.54 -19.65 -3.67c-2.38,-0.44 -3.16,-1.69 -2.44,-3.76l2.13 -6.38 20.55 3.83 3.67 -11.51 -20.39 -3.81 1.7 -5.02c0.79,-2.39 2.01,-3.01 4.79,-2.5l19.65 3.67zm56.56 -8.83l-18.02 -1.38 -4.48 20.3 -13.7 -1.05 4.47 -20.29 -18.02 -1.37 -12.43 56.69 18.03 1.37 5.23 -23.74 13.7 1.04 -5.23 23.75 18.03 1.37 12.42 -56.69zm19.72 22.23l1.02 -9.37 23.78 -0.78 2.75 -13.01c-7.25,-0.17 -14.24,-0.19 -21.31,0.04 -7.32,0.24 -14.73,0.65 -21.95,1.39l-6.2 57.7c8.1,0.32 14.84,0.18 27.66,-0.24 14.23,-0.46 19.83,-4.4 21.3,-18.03 1.54,-14.05 -4.92,-18.43 -22.14,-17.86l-4.91 0.16zm-2.56 23.51l1.34 -12.55 5.32 -0.18c4.75,-0.15 5.53,0.66 5.1,5.5 -0.55,6.19 -1.86,6.9 -7.35,7.08l-4.41 0.15zm83.02 -52.32l-18.78 2.25 -7.99 29.98 -0.58 0.07c-0.74,0.09 -1.2,-0.2 -1.41,-1.26l-5.81 -26.9 -17.95 2.14 9.58 32.41c1.13,4.56 3.7,7.78 8.99,7.15l2.81 -0.34 -0.37 1.05c-1.31,3.18 -5.04,3.46 -13.83,4.34l-1.2 12.47c4.3,0.16 12.88,0.31 18.27,-0.92 8.58,-1.87 11.75,-6.94 15.17,-18.34l13.1 -44.1zm3.92 57.28l17.69 -3.3 -0.87 -20.09c3.01,-0.22 6.16,-0.55 9.19,-1.12 14.83,-2.77 19.68,-7.65 18.92,-22.59 -0.82,-15.78 -7.64,-19.17 -24.92,-15.94 -10.48,1.95 -15.37,2.95 -22.61,5.06l2.6 57.98zm16.23 -35.65l-0.59 -13.61 6.3 -1.18c4.02,-0.75 5.03,0.59 5.23,5.3 0.33,6.8 -0.87,7.62 -5.05,8.4l-5.89 1.09zm36.74 24.58l17.41 -4.85 -5.39 -40.7c-0.37,-2.58 0.63,-3.63 3.2,-4.35l17.25 -4.81 -1.45 -12.66c-7.22,0.81 -18.07,3.75 -27.14,6.28 -6.9,1.92 -10.93,8.24 -9.89,15.99l6.01 45.1zm80.03 -43.11c-4.8,2.37 -9.17,4.24 -16.94,7.23 -5.75,2.22 -6.73,-0.09 -9.4,-11.2 -3.24,-13.3 -2.18,-15.4 3.34,-17.53 7.15,-2.75 10.91,-4.11 16.62,-6.22l-2.75 -12.95c-5.78,0.53 -10.48,1.54 -18.49,4.62 -17.86,6.87 -22.02,14.81 -16.74,37.59 5.19,22.28 14.27,27.08 32.12,20.21 7.85,-3.02 12.55,-5.63 17.62,-9.63l-5.38 -12.12zm30.74 -31.91c10.46,-7.06 9.05,-10.27 7.14,-34.15l-16.79 8.35c2.44,19.15 2.85,22.95 -3.5,26.1l-1.49 0.74c-0.43,-2.39 -1.03,-4.88 -1.77,-6.93l-4.65 -14.24 -16.19 8.04 18.34 55.06 16.19 -8.04 -5.88 -17.63c-0.52,-1.61 -1.4,-3.4 -2.48,-5l2.15 -1.08c6.5,-3.22 6.79,-1.13 19.04,17.33l16.56 -8.22c-14.37,-20.87 -15.55,-23.25 -26.52,-19.85l-0.15 -0.48zm57.21 -13.53l7.37 9.73 15.25 -9.69 -34.39 -40.32c-1.8,-2.22 -5.07,-2.7 -7.53,-1.14l-13.78 8.75c-2.46,1.56 -3.63,4.08 -3.02,7.05l9.79 56.74 15.82 -10.05 -2.73 -12.68 13.22 -8.39zm-7.9 -10.58l-8.22 5.23 -2.81 -13.12c-0.51,-2.34 -1.25,-4.44 -1.94,-6.16l1.96 -1.25c1.05,1.8 2.14,3.67 3.52,5.37l7.49 9.93zm28.89 -22.96c-2.29,2.34 -5.89,6.66 -3.53,13.82l5.64 18.46 15.44 -12.17 -5.71 -16.82c-1.06,-3.09 -0.61,-4.94 2.08,-7.05l2.81 -2.21 10.71 18.29 14.26 -11.25 -29.24 -50.13c-6.34,4.04 -10.71,7.38 -20.07,14.76 -11.98,9.44 -16.66,16.42 -10.24,27.38 4.02,7 10.27,10.88 17.66,6.54l0.19 0.38zm10.28 -17.12l-4.45 3.51c-3.46,2.73 -5.11,2.65 -7.81,-2.12 -2.21,-3.87 -1.66,-5.47 1.67,-8.1l4.58 -3.61 6.01 10.32zm31.02 -63.8c-12.42,12.93 -13.63,22.61 1,41.16 14.82,18.73 24.48,18.65 38.26,4.29 12.52,-13.04 14.13,-22.79 -0.74,-41.45 -15.06,-18.84 -25.38,-17.69 -38.52,-4zm9.55 9.4c4.09,-4.26 6.83,-3.14 14.88,7.36 8.77,11.42 9.78,14.58 5.44,19.1 -4.09,4.27 -6.76,3.2 -14.81,-7.41 -8.72,-11.49 -9.73,-14.65 -5.51,-19.05zm37.79 -29.29l-6.56 -6.76 14.55 -18.82 -8.28 -10.4c-4.75,5.46 -9.22,10.84 -13.55,16.44 -4.49,5.8 -8.89,11.76 -12.92,17.81l40.53 41.53c5.4,-6.03 9.6,-11.32 17.44,-21.47 8.7,-11.26 9.24,-18.09 -0.33,-27.91 -9.85,-10.14 -17.34,-7.94 -27.87,5.7l-3.01 3.88zm16.48 16.95l-8.82 -9.02 3.27 -4.22c2.9,-3.76 4.02,-3.84 7.49,-0.42 4.42,4.36 4.12,5.82 0.76,10.17l-2.7 3.49zm13.42 -100.39l-15.84 24.37c-4.8,7.41 -4.06,13.75 1.7,19.57 8.72,8.75 15.19,15.94 17.97,20.52 3.14,5.12 1,7.8 -0.47,10.82l12.09 7.05c7.46,-7.76 9.95,-15.88 2.4,-28.13 -3.96,-6.45 -12.46,-15.25 -19.23,-22.12 -2.45,-2.49 -2.68,-4.13 -0.77,-7.06l1.31 -2.03 34.79 30.24 9.85 -15.16 -43.8 -38.07zm52.4 -6.7l11.32 4.57 8.13 -16.14 -50.2 -16.98c-2.68,-0.98 -5.75,0.28 -7.05,2.88l-7.35 14.59c-1.31,2.6 -1.01,5.36 1.03,7.59l37.49 43.7 8.43 -16.74 -8.84 -9.49 7.04 -13.98zm-12.19 -5.03l-4.39 8.7 -9.14 -9.82c-1.62,-1.75 -3.33,-3.17 -4.83,-4.3l1.05 -2.08c1.82,1.01 3.73,2.06 5.77,2.81l11.54 4.69zm34.68 -56.97c-1.53,5.14 -3.15,9.6 -6.26,17.33 -2.31,5.71 -4.66,4.86 -14.6,-0.76 -11.94,-6.7 -12.76,-8.92 -10.55,-14.4 2.86,-7.11 4.44,-10.78 6.78,-16.39l-11.34 -6.82c-3.56,4.58 -6.03,8.71 -9.23,16.66 -7.15,17.76 -4.18,26.22 16.08,37.88 19.83,11.4 29.53,8.04 36.69,-9.7 3.14,-7.81 4.44,-13.03 4.96,-19.47l-12.53 -4.33zm-12.13 -67.44l-12.48 -5.47 -13.38 47.97 12.48 5.47 4.25 -15.24 40.7 17.76 4.86 -17.41 -40.71 -17.76 4.28 -15.32zm8.62 -18.58l-18.9 -6.32 -3.32 17.77 55.03 18.47c1.99,-7.5 3.3,-14.12 5.63,-26.57 2.71,-14.57 -0.3,-19.79 -14.33,-24.53 -14.5,-4.9 -20.13,-0.19 -23.3,16.84l-0.81 4.34zm24.8 8.35l-14.36 -4.8 0.85 -4.58c0.95,-5.08 2.47,-4.62 8.4,-2.75 7.11,2.25 6.68,3.7 5.8,8.36l-0.69 3.77zm-1020.57 -177.62l10.64 -37.45 -80.84 -35.82c-5.15,-2.21 -5.97,-5.24 -4.4,-10.76l10.54 -37.11 -24.89 -11.54c-6.63,14.16 -13.42,37.41 -18.96,56.91 -4.21,14.84 2.86,29.34 18.27,36.14l89.64 39.63zm32.63 -162.71l24.3 10.02 17.75 -34.65 -107.88 -37.31c-5.76,-2.14 -12.36,0.53 -15.23,6.11l-16.02 31.29c-2.87,5.6 -2.28,11.54 2.08,16.39l80.12 94.66 18.4 -35.93 -18.89 -20.56 15.37 -30.02zm-26.21 -11l-9.57 18.67 -19.53 -21.28c-3.49,-3.81 -7.15,-6.9 -10.33,-9.33l2.28 -4.47c3.91,2.2 7.98,4.48 12.38,6.13l24.77 10.28zm75.05 -21.28l25.5 -29.43 -58.08 -66.68c-3.73,-4.18 -3.19,-7.28 0.57,-11.61l25.25 -29.16 -17.65 -20.98c-12,10.01 -28,28.2 -41.27,43.52 -10.1,11.67 -9.83,27.8 1.25,40.48l64.43 73.86zm98.51 -133.36l17.88 19.27 30.6 -24.05 -82.39 -79c-4.34,-4.36 -11.45,-4.7 -16.39,-0.81l-27.64 21.72c-4.94,3.88 -6.89,9.53 -4.96,15.76l33.21 119.48 31.74 -24.94 -8.57 -26.58 26.52 -20.85zm-19.21 -20.95l-16.51 12.97 -8.84 -27.51c-1.58,-4.92 -3.61,-9.25 -5.49,-12.79l3.95 -3.1c2.63,3.63 5.37,7.4 8.68,10.74l18.21 19.69zm77.9 12.66l35.31 -15.95 -12.1 -41.59c6.18,-2.01 12.61,-4.33 18.66,-7.06 29.59,-13.37 37.23,-26.09 28,-56.95 -9.81,-32.59 -25.81,-36.18 -60.3,-20.59 -20.93,9.46 -30.66,14.06 -44.71,22.18l35.14 119.96zm15.68 -82.88l-8.21 -28.19 12.59 -5.69c8.01,-3.62 10.81,-1.35 13.64,8.4 4.19,14.06 2.09,16.38 -6.24,20.15l-11.78 5.33zm202.76 21.08l1.66 -125 -36.66 4.66 -30.88 60.16c-3.04,5.99 -5.85,13.77 -8.12,21.47l-1.42 0.19c1.47,-8.33 2.81,-16.28 2.9,-24.07l0.68 -53.07 -37.02 4.7 -1.66 125 37.2 -4.73 31.38 -61.86c3.19,-6.19 5.51,-13.53 7.57,-20.13l1.25 -0.15c-1.44,7.23 -2.31,14.57 -2.52,21.47l-1.02 56.01 36.66 -4.65zm162.17 -108.95l-38.62 -4.91 -11.82 43.17 -29.36 -3.73 11.81 -43.17 -38.62 -4.91 -32.86 120.61 38.62 4.91 13.83 -50.51 29.37 3.73 -13.84 50.51 38.62 4.91 32.87 -120.61zm-206.08 759.18c17.34,9.19 59.58,27.78 59.67,25.84 0.13,-2.89 -22.44,-23.38 -26.3,-24.94 -22.22,-8.94 -37.96,-60.81 -41.44,-46.72 -3.83,4.27 -20.72,0.51 -28.16,-7.6 -5.68,-12.39 -9.8,-24.52 -20.09,-40.13 -6.62,-10.02 -16.33,-21.77 -26.12,-33.6 -8.45,-10.21 -12.45,-27.21 -19.11,-36.52 -3.27,-4.58 -8.37,-8.14 -10.51,-12.13 -5.11,-9.49 -11.98,-12.75 -15.95,-21.49 -5.97,-13.15 -10.48,-25.3 -13.08,-35.96 17.33,-23.76 39.98,-58.2 69.93,-85.08 23.24,-20.87 50.64,-32.4 72.42,-42.5 10.66,-4.94 19.75,-13.44 26.78,-14.98 28.72,-6.26 64.38,-13.31 94.92,-15.38 24.51,-1.66 42.94,4.31 56.3,10.35 3.01,3.18 6.42,6.28 10.54,9.18 8.5,11.04 13.47,18.76 22.67,29.63 8.43,9.95 20.66,27.75 20.66,41.28 0,6.8 -1.59,14.49 -0.64,20 1.63,9.38 8.15,15.77 11.88,22.84 3.31,6.27 6.17,14.61 10.87,23.6 8.79,16.8 21.58,38.75 22.26,51.28 0.96,17.49 1.5,24.31 1.5,44.83 0,23.8 0.23,49.15 -3.06,72.41 -3.46,24.51 -9.78,30.91 -9.78,61.95 0,17.52 1.33,38.12 1.39,54.71 -22.44,7.66 -66.87,19.32 -98.08,27.48 -30.05,-3.9 -73.27,-49.27 -73.33,-49.29 14.16,21.49 15.9,41.02 16.73,48.86 -24.53,-8.56 -55.62,-19.29 -60.28,-22.29 -0.56,-0.35 -1.63,-0.77 -3,-1.21 -2.96,-1.74 -6.01,-3.04 -9,-3.72 -9.56,-11.27 -23.97,-29.08 -40.59,-50.7zm66.79 -57.86c-1,1.09 -2.12,2.05 1.39,3.39 3.1,1.19 4.94,2.11 8.16,1.43 3.6,-0.78 6.11,-1.07 10.83,-2.27 9.83,-2.49 18.65,-3.84 28.5,-7.12 3.12,-1.04 6.26,-2.18 9.28,-3.39 6.49,-2.59 12.92,-4.63 18.29,-7.32 6.98,-3.49 13.52,-7.04 19.08,-7.98 4.35,-0.75 7.3,-0.14 12.16,-0.23 2.59,-0.04 8.93,0.89 9.11,0.81 15.05,-6.44 8.03,-11.72 34.42,-14.22 5.64,-0.54 12.96,-5.66 15.36,-8.2 2.39,-2.55 0.69,-5.48 1.69,-9.45 1.01,-3.95 0.33,-7.19 1.12,-9.52 0.57,-1.69 7.26,-14.76 8.09,-10.37 1.68,8.79 6.45,-0.39 5.35,17.45 -0.52,5.77 4.46,13.48 1.42,17.61 -1.29,1.76 -4,5.89 -3.94,7.23 -5.7,3.91 -5.52,-5.26 -9.39,-6.11 -4.42,-0.97 -6.52,7.69 -8.84,10.44 -0.86,0.99 -0.71,5.36 -1.95,8.88 -2.46,7.05 -4.39,10.26 -4.81,9.8 -3.82,7.31 -13.68,16.08 -20.09,18.37 -38.72,12.48 -61.35,12.81 -79.73,12.84 0,-3.55 7.56,2.05 11.68,-5.45 0.76,-3.55 -0.67,1.08 6.71,1.9 0.74,1.29 18.99,3.39 19.34,-6.75 0.1,-1 2.82,-0.5 4.07,1.35 2.82,4.25 19.02,1.65 19.02,-4.06 1.07,-2.64 2.99,2.32 6.95,0.97 1.91,-2.02 15.62,-3.79 15.62,-9 0.2,-0.57 0.77,-1.96 1.54,-1.16 2.81,4.71 10.6,-2.46 10.76,-6.24 0.01,-0.16 1.99,-3.48 3.6,-6.11 -0.84,-7.51 -0.94,-20.5 -3.64,-19.07 -5.32,1.01 -9.04,4.29 -11.83,6.64 -0.96,0.79 -2.31,3.42 -3.79,4.17 -1.27,0.64 -2.55,-0.63 -4.75,0.45 -1.54,0.76 -3.38,1.68 -5.59,2.84 -4.19,2.22 -6.71,3.06 -8.19,5.86 -1.27,1.47 -1.13,4.44 -1.62,4.67 -1.27,0.56 -1.77,-2.9 -4.15,-4.52 -2.51,-1.66 -6.63,0.04 -10.05,0.57 -3.41,0.54 -6.08,1.58 -7.71,3.24 -1.61,1.66 -1.04,4.75 -1.04,6.69 -0.39,3.29 -1.87,-1.64 -5.39,-3.93 -5.34,-2.34 -17.05,1.5 -18.99,9.58 -0.47,1.74 -0.36,-0.93 -3.28,-2.72 -4.3,-2.63 -17.26,-1.55 -20.09,2.11 -3.11,4.03 2.8,11.27 2.61,14.07 -0.13,1.87 -1.63,3.35 -3.75,1.15 -0.68,-8.19 -3.36,-14.28 -6.74,-14.55 -3.39,-0.26 -13.02,1.4 -13.87,3.58 -3.03,2.18 9.21,13.72 -6.59,11.99 -1.63,0.4 -7.5,-0.52 -13.63,-1.29 -1.37,-0.17 -2.61,-0.29 -3.74,-0.4 0.45,1.84 0.78,4.07 0.98,6.77 0.61,7.89 4.49,15.73 9.53,21.16 0.36,0.38 11.14,13.98 6.67,20.4 1.02,-3.5 -2.27,-10.12 -9.38,-17.76 -8,-8.61 -15.05,-20.79 -16.09,-32.97 -1.52,-1.36 -2.75,-3.6 -3.97,-7.46 -1.92,-6.06 -1.45,-13.3 1,-14.45 1.83,-0.79 3.82,-4.39 6.05,-7.51 8.13,-11.29 17.84,2.54 12.21,8.07 -2.44,2.39 -6.05,4.98 -5.97,5.1zm169.4 -114.54c6.76,4.51 18.51,8.09 24.79,17.53 1.43,2.14 0.17,5.09 0.87,7.97 1.32,5.4 5.17,6.02 2.5,18.19 -0.53,-2.54 -11.33,-14.97 -14.58,-18.61 -12.72,-14.24 -20.69,-10.91 -29.65,-30.95 0,-4.05 12.57,3.52 16.07,5.87zm-81.28 -83.1c2.25,2.23 4.65,4.22 5.72,4.84 1.26,0.74 4.08,-0.92 4.97,0 2.09,2.19 1.16,4.95 2.47,7.25 1.46,2.54 5.26,4.51 10,4.51 4.13,0 14.39,-3.83 21.17,-7.13 2.34,-1.14 4.27,-2.22 5.38,-3.05 1.22,-1.58 0.39,-2.62 0,-2.46 -2.5,1.05 -4.68,2.78 -8.03,2.12 -6.63,-1.31 -14.01,-1.62 -20.45,-3.26 -2.45,-0.62 -4.93,-3.42 -7.41,-4.14 -3.51,-1.01 -8.69,0.96 -12.05,-0.54 -0.17,-0.08 -0.33,-0.16 -0.5,-0.26 -1.63,-5.77 2.5,-13.85 8.47,-17.6 1.46,6.2 4.96,12.44 10.29,14.21 2.42,0.81 5.89,0.03 8.54,-0.92 2.33,-4.39 8.74,-5.56 11.02,-7.03 1.78,-4.22 2.54,-4.7 2.97,-9.28 2.16,-1.26 13.35,1.09 18.72,3.37 0.14,0.29 0.23,-4.29 0.3,-4 -0.61,-1.78 1.02,-1.29 1.08,-2.78 0.05,-1.65 -1.42,-5.27 -1.43,-6.97 -0.01,-1.26 1.23,-4.68 0.36,-6.13 -0.57,-0.97 -3.26,0.06 -3.59,-0.97 -0.55,-1.77 0.65,-3.97 -0.19,-4.77 -1.65,-1.6 -3.79,0.98 -5.89,-0.2 -0.99,-0.55 0.2,-3.5 -1,-3.77 -1.94,-0.45 -4.92,1.15 -7.05,0.98 -0.56,-0.05 -1.61,-3.98 -3.52,-3.81 -0.73,0.06 -0.47,3.6 -1.2,3.73 -2.97,0.58 -3.51,-1.6 -4.93,-1.45 -1.44,0.09 -2.51,1.17 -4.03,1.49 -1.14,0.16 -2.89,-0.82 -3.22,-1.85 0.4,-0.32 0.76,-0.66 1.1,-0.99 2.08,-1.82 3.2,-4.55 5.22,-6.13 1.46,-1.12 3.77,-0.96 5.3,-1.22 -0.53,-1.1 -1.14,-2.37 0.41,-3.32 1.91,-1.15 2.86,-2.82 5.08,-3.74 4.26,-1.74 8.53,0.16 12.59,0.21 6.68,0.08 5.02,0.62 6.8,2.87 0.69,-1.93 -0.01,-4.8 -0.66,-6.47 -0.99,-0.43 -2.15,-0.34 -2.85,-1.61 -1.39,-1.99 -2.28,-3.69 -1.4,-6.23 0.56,-1.62 2.76,-2.06 3.05,-2.67 0,-0.04 -0.01,-0.09 -0.01,-0.13 -1.65,-0.14 -9.3,3.28 -9.03,-1.33 0.11,-2.03 -5.93,-3.64 -7.75,-3.58 -8.22,0.28 -13.14,11.38 -19.22,15.75 -0.1,0.07 -0.19,0.13 -0.3,0.17 -13.05,5.76 -9.2,-2.31 -18.07,12.37 -0.13,0.22 -0.29,0.38 -0.49,0.52 -4.16,2.79 -7.67,10.94 -8.83,15.7 -0.02,0.08 -0.05,0.15 -0.08,0.23 -0.48,1.2 -1.51,4.57 -2.01,7.13 0.95,-1.06 2.05,-2.18 3.08,-2.26 2.3,-1.42 4.62,-2.74 6.97,-3.99 2.04,0.13 -4.17,4.17 -6.82,5.83 -3.28,5.91 -7.82,15.57 -7.47,18.82 -0.22,2.6 -0.28,3 0.59,5.44 3.26,4.81 6.9,9.24 6.92,9.21 0.11,-0.24 0.49,-0.48 0.91,-0.71zm23 -13.12c1.23,0 2.89,-0.25 2.89,0.71 0,0.96 -1.66,2.76 -2.89,2.76 -1.23,0 -2.23,-0.78 -2.23,-1.74 0,-0.95 1,-1.73 2.23,-1.73zm1.38 -6.91c0.41,0.68 3.56,0.99 4.6,-0.34 1.32,-1.7 2.13,-2.74 2.2,-4.23 0.09,-2.12 -0.62,-2.85 -2.62,-3.67 -0.76,-0.32 -2.93,0.14 -3.82,1.4 -1.47,2.08 -3.54,1.57 -0.36,6.84zm-105.93 -2.37c-2.32,-6.86 -19.11,-3.41 -24.87,-4.37 -6.2,-1.04 -17.1,3.11 -22.69,5.7 -6.41,2.97 -17.39,3.58 -23.87,5.21 -2.92,0.73 -5.75,0.72 -8.72,0.47 -1.49,-0.12 -4.12,-0.51 -5.55,-0.16 -0.47,0.12 -1.71,0.43 -2.85,0.79 1.82,0.25 3.54,2.19 4.46,2.19 3.44,0 12.99,-1.26 15.01,1.91 1.72,2.69 -3.31,5.18 -6.04,4.99 -1.39,0.57 -1.61,1.03 -3.34,1.2 -0.89,0.22 -3.18,3.2 -4.35,3.63 -3.4,1.24 -6.94,1.56 -10.53,1.24 -1.98,-0.18 -4.7,-0.39 -6.59,0.37 -0.35,0.14 -1.24,0.5 -1.96,0.85 0.73,0.47 1.62,0.97 2.33,1.58 0.08,-0.01 0.15,-0.01 0.21,-0.02 5.09,-0.3 2.52,4.99 1.23,7.39 -1.62,3.01 -9.5,-0.64 -12.76,3.35 -2.67,3.27 -6.27,4.05 -7.75,8.44 -0.99,2.93 -8.67,2.78 -9.04,8.19 -0.03,0.51 -0.15,2.12 0.01,2.86 0.64,-0.27 1.72,-1.14 2.06,-1.43 9.69,-8.36 20.13,-14.64 31.6,-20.22 5.96,-2.91 15.95,-6.83 20.91,-10.93 2.19,-1.82 14.06,-1.69 16.89,-1.54l1.42 0.07c2.13,0.16 4.93,2.75 -1.41,6.36 -3.2,1.83 -6.93,4.2 -11.4,7.22 -7.85,5.3 -14.5,9.98 -20.87,15.2 -2.85,2.33 -9.3,5.37 -12.13,8.03 -6.32,4 -20.48,3.79 -21.52,5.48 -1.06,1.72 12.9,-0.09 11.68,3.67 -7.61,9.51 -11.07,16.16 -24.96,16.93 -1.57,0.22 -4.27,1.17 -4.27,2.38 2.01,2.06 14.53,-1.57 14.59,0.19 0.04,1.14 -3.33,4.18 -8.41,7.54 -2.06,1.37 -3.29,2.84 0.59,1.82 3.97,-0.99 6.58,-4.02 9.39,-5.94 2.63,-1.79 5.47,-2.44 8.52,-4.59 2.83,-2.83 6.85,-2.59 8.71,-5.35 3.45,-5.12 7.6,-9.06 11.47,-10.85 5.48,-2.53 9.22,0 14.77,-6.92 1.81,-2.15 4.98,-5.74 7.33,-5.91 4.1,6.23 10.74,8.85 18.13,7.55 5.27,-0.92 12.28,-3.09 14.91,-7.37 0.4,-2.26 -0.12,-5.17 -0.51,-8.08 -0.25,-2.49 3.29,-1.12 3.49,-0.36 0.06,0.37 0.16,1.14 0.29,2.1 1.45,0.79 2.76,1.4 4.19,2.39 2.67,1.87 6.1,0.37 6.29,4.69 0.05,1.14 -4.65,1.55 -5.83,0.95 -1.37,-0.69 -2.35,-1.12 -3.58,-1.37 0.11,0.46 0.22,0.77 0.32,0.83 -0.19,1.25 -2.47,2.93 -3.09,3.66 -0.29,0.34 -0.77,1.52 0.57,1.66 -3.07,3.17 -9.6,9 -22.52,8.63 -1.44,-0.03 6.66,2.57 13.96,4.28 6,-4.21 12.51,-1.77 9.71,3.41 -12.58,6.98 -26.92,8.65 -33.83,8.65 -2.82,0.15 -11.82,3.54 -19.48,7.72 -2.91,1.75 -1.46,3.43 5.7,0.65 5.54,-2.16 11.51,-2.73 16.02,-3.85 7.47,-1.84 14.71,-3.57 21.15,-4.87 8.25,0.64 15.01,-0.61 19.26,-2.24 9.34,-1.78 11.96,-4.64 15.69,-6.06 5.18,-1.99 5.51,-13.44 2.05,-15.01 -1.35,-0.62 -6.32,0.57 -6.52,0.77 -0.41,0.41 -4.66,-1.1 -9.12,-2.44 1.76,-0.06 3,-0.1 3.04,-0.11 4.92,-1.42 10.18,-2.66 4.11,-6.05 3.28,-1.89 -1.85,-7.11 3.39,-10.47 0.91,-0.59 0.66,-3.06 1.64,-3.68 2.42,-1.54 5.47,2.19 8.55,1.58 2.25,-0.44 4.53,-5.4 6.62,-5.59 8.43,-0.77 5.26,-9.28 2.37,-11.03 -3.54,-2.17 -3.81,-3.07 -2.58,-3.86 0.51,-0.88 0.84,-1.67 1,-2.4 2.25,-1 4.43,-1.51 6.38,-4.03 1.36,-1.74 3.68,-3.22 5.59,-4.31 1.45,-0.83 4.93,-2.36 6.45,-3.35 -0.23,-4.2 -5.97,-3.19 -9.36,-3.19 -3.57,0 -13.08,-0.11 -15.88,-1.94 -0.4,-0.26 -0.64,-0.63 -0.73,-1.1 -0.08,-0.46 0.03,-0.89 0.31,-1.27 0.89,-1.19 3.19,-1.74 4.55,-2.51zm-70.37 51.22c0.1,-0.47 0.09,-0.22 1.45,-1.23 0.54,-0.41 1.74,-1.93 2.18,-2.5 2.22,-2.88 4.42,0.07 3.94,2 -0.1,0.41 -2.84,2.6 -3.14,2.81 -3.52,2.39 -4.71,0.23 -4.43,-1.08zm14.81 -7.6c-1.57,2.98 0.44,5.37 3.46,4.78 0.98,-0.19 2.32,-1.24 2.34,-2.55 0.02,-1.25 0.84,-3.02 -1.05,-3.8 -2.08,-0.86 -4.13,0.36 -4.75,1.57zm75.53 93.49c10.3,5.23 20.46,19.82 36.09,11.08 3.97,-3.76 8.49,-7.96 16.05,-13.71 2.05,-1.55 24.35,-16 24.83,-16.1 5.03,-1.11 17.21,7.39 10.58,12.4 -5.24,5.31 -15.18,0.45 -22.13,5.2 -3.23,2.62 -16.51,9.26 -25.44,13.21 -17.97,13.66 -35.59,-1.35 -39.98,-12.08zm-9.97 -286.11c22.23,0 42.71,7.58 62.77,15.48 8.46,3.32 14.07,8.27 19.04,13.87 -61.91,-22.35 -134.53,-18.54 -191.38,13.77 -55.94,39.08 -141.51,100.75 -154.33,119.89 1.95,7.86 10.86,21.21 16.8,30.01 24.83,39.96 80.13,126.78 105.2,168.41 25.03,35.96 53.35,79.88 81.98,112.06 -6.24,-1.48 -12.51,-2.28 -19.08,-0.25 -6.17,1.91 -13.22,0.19 -20.44,0.98 -7.12,-6.75 -17.98,-14.1 -21.69,-16.42 -31.89,-19.95 -133.3,-135.14 -160.66,-170.16 -12.92,-16.54 1.01,-20.88 6.94,-29.99 2.2,-3.37 -5.08,-20.72 -11.52,-33.33 -7.56,-14.82 -7.86,-18.95 -7.86,-36.56 0,-10.59 20.11,-36.48 27.12,-43.71 9.44,-9.72 39.46,-44.64 75.29,-71.23 47.84,-35.5 102.92,-63.14 102.97,-63.35 28.71,-8.46 58.68,-22.16 92.52,-28.73 32.72,-6.35 68.19,-6.81 99.85,1.64 19.19,5.13 36.97,13.53 51.89,25.89 19.12,19.94 13.37,18.29 30.18,51.14 5.28,26.59 14.22,75.44 5.84,90.99 -4.9,9.08 -6.8,27.17 -5.72,44.04 -2.04,0.27 -3.41,-0.22 -3.41,-2.25 -8.46,-22.39 -11.73,-103.3 -38.65,-128.18l-0.01 -0.03c-12.89,-22.56 -27.79,-38.36 -48.23,-53.03 -22.65,-16.26 -94.52,-10.19 -95.41,-10.95zm0.33 298.67c-3.33,4.71 -7.91,10.65 -11.14,14.67 -16.92,22.35 -32.45,41.9 -35.56,61.6 -1.48,9.34 -0.16,18.72 5.11,28.44 -9.73,-11.69 -20.28,-30.97 -11.6,-46.04 17.33,-30.08 29.54,-44.92 47.13,-63.64 5.69,-5.02 9.8,-0.44 6.06,4.97zm26.8 -174.79c6.45,5.92 6.2,12.99 2.97,19.14 -5.43,6.19 -0.99,5.79 1.77,3.39 5.3,-3.31 4.92,-16.72 2.62,-21.67 -1.28,-2.75 -6.18,-13.19 -9.43,-12.65 -10.56,1.48 -4.26,4.18 2.07,11.79zm-286.3 139.35c-28.74,12.41 -12.66,14.48 -8.56,21.02 15.37,24.52 109.52,127.54 119.14,135.31 -26.45,-29.75 -95.18,-124.76 -110.58,-156.33zm270.41 11.52c-0.39,0.92 -1.46,1.34 -2.38,0.95 -0.92,-0.4 -2.04,-1.26 -1.64,-2.18 3.1,-7.19 25.16,-18.5 33.07,-20.07 3.99,-0.8 7.01,0.4 1.61,1.48 -8.37,1.67 -27.39,12.25 -30.66,19.82zm43.03 238.88l0.01 0 -0.01 0zm50.53 -228.68c-4.75,5.86 -13.39,9.38 -19.39,10.84 -6.49,1.58 -12.49,5.68 -16.83,10.86 -0.34,0.41 -0.65,0.77 -0.93,1.08 1.52,0.13 2.96,0.41 4.27,0.81 6.25,-4.32 13.64,-6.94 17.8,-6.94 2.69,0 5.04,-0.64 7.08,-1.69 5.32,-0.15 6.86,-2.52 13.51,-7.35 10.01,-7.27 4.4,-7.79 8.69,-11.43 0.06,-0.05 7.83,-9.43 11.33,-12.36 0.49,-0.48 -1.3,-4.85 -3.38,-6.2 -0.62,-0.4 -2.71,0.76 -4.34,3.2 -1.3,1.95 -2.83,4.23 -4.24,6.98 -1.86,0.79 -4.32,1.85 -7.17,1.97 -2.31,0.1 -4.62,8.04 -6.4,10.23zm26.76 115.27c-3.07,5.93 -33.42,21.89 -48.4,16.07 -2.2,-0.86 3.7,11.46 11.09,11.53 8.76,-0.22 12.37,-0.45 21.09,-3.81 3.49,-1.35 5.75,-4.97 9.16,-6.57 4.4,-2.08 10.87,-3.4 13.91,-7.29 3.68,-4.7 2.83,-11.78 4.81,-17.66 -3.24,3.39 -7.21,6.05 -11.66,7.73zm-578.96 13.95c18.6,32.6 121.58,162.62 176.32,223.98 -13.14,-8.65 -25.8,-17.95 -37.94,-27.87 -28.19,-24.09 -52.37,-49.53 -77.7,-82.91 -17.72,-20.26 -59.15,-97.84 -60.68,-113.2zm371.21 156.23c3.49,2.06 6.99,6.22 10.25,12.91 1.04,0.29 2.13,0.44 3.26,0.44 7.52,0 13.62,-6.82 13.62,-15.24 0,-8.42 -6.1,-15.25 -13.62,-15.25 -7.52,0 -13.62,6.83 -13.62,15.25 0,0.64 0.04,1.27 0.11,1.89zm-50.85 -47.96c6.64,-8.66 14.06,-14.2 21.7,-16.69l0 6.5c-6.48,1.54 -12.62,5.94 -17.6,13.9l-4.1 -3.71zm38.64 -17.27c7.99,2.04 15.77,7.36 22.7,15.89l-6.74 5.82c-4.64,-5.72 -10.15,-10.11 -15.96,-12.69l0 -9.02zm-47.77 35.24c-0.4,4.21 0.14,10.71 4.69,12.6 2.79,1.15 8.01,-1.92 10.05,-3.92 1.75,-1.7 10.51,-2.17 13.11,-1.38 1.71,0.52 -2.08,-11.19 -9.24,-14.54 -11.6,-5.44 -17.4,2.33 -18.61,7.24zm-337.2 -328.8l-0.11 1.1c-0.07,0.67 -0.12,1.36 -0.19,2.04l15.41 -19.1c11.47,-40.01 183.33,-226.89 303.74,-278.26 -79.09,0 -273.09,150.6 -303.72,215.87 -7.25,25.28 -12.36,51.47 -15.13,78.35zm38.3 -141.1c54.06,-75.21 210.54,-167.78 250.16,-181.97 -47.68,7.82 -141.55,61.91 -204.36,103.52 -17.75,24.43 -33.14,50.68 -45.8,78.45zm645.11 -81.88l0.05 0.07 0.18 0.26 -0.23 -0.33zm-357.98 681.89c-115.96,-94.66 -294.7,-326.68 -294.7,-451.67 0,-29.26 36.97,-63.04 70.69,-102.02 37.59,-43.44 162.73,-179.62 346.83,-198.89 6.96,-0.72 20.08,-1.24 14.02,1.87 -128.48,11.74 -270.41,121.15 -351.6,214.99 -30.79,35.59 -49.03,58.98 -53.6,89.31 -3.84,25.41 1.82,36.85 10.9,65.39 45.3,142.26 223.74,325.63 285.73,379.88 7.6,6.64 -9.49,16.48 -28.27,1.14zm493.19 -234.57c-1.12,-1.86 -7.68,8.26 -8.2,5 -7.93,-49.21 -73.42,-199.15 -82.56,-224.57 -6.86,-38.5 -27.27,-89.86 -43.1,-127.64 -15.56,-37.15 -36.25,-92.59 -34.48,-92.64 24.7,21.37 52.61,53.94 61.34,86.97 30.76,116.48 64.16,239.11 107,352.88zm-459.97 -187.48c-9.03,4.02 -17.06,15.51 -22.28,23.6 -0.63,0.98 -1.06,1.52 -1.89,1.44 2.64,-10.44 7.39,-23.24 17.29,-27.64 7.26,-5.06 18.8,-1.05 6.88,2.6zm414.6 -190.93c5.24,2.44 10.4,-5.23 4.99,-8.63 -6.69,-2.5 -8.7,5.32 -4.99,8.63zm55.92 54.8c0.57,3.62 2.69,4.58 5.47,4.42 2.84,-1.18 3.81,-3.17 2.89,-5.99 -2.01,-3.86 -7.51,-3.28 -8.36,1.57zm-39.26 47.87c-2.14,6.42 11.04,12.99 13.24,2.87 2.29,-10.78 -11.3,-10.7 -13.24,-2.87zm-23.25 -39.3c0.19,16.57 16.75,4.72 11.11,-2.1 -4.53,-3.52 -8.23,-2.22 -11.11,2.1zm87.53 40.26c-2.14,6.43 11.04,13 13.24,2.88 2.29,-10.78 -11.3,-10.71 -13.24,-2.88zm-20.67 29.14c0.57,3.62 2.7,4.58 5.46,4.41 2.84,-1.17 3.83,-3.17 2.89,-5.98 -2.01,-3.87 -7.5,-3.29 -8.35,1.57zm34.03 -6.13c-3.43,10.27 17.64,20.78 21.16,4.6 3.67,-17.24 -18.06,-17.12 -21.16,-4.6zm-53.64 45.76c-1.54,4.64 7.98,9.39 9.57,2.08 1.66,-7.79 -8.16,-7.73 -9.57,-2.08zm65.47 79.57c-1.55,4.64 7.97,9.39 9.56,2.08 1.65,-7.8 -8.16,-7.74 -9.56,-2.08zm-21.96 64.87c-1.55,4.64 7.97,9.39 9.56,2.08 1.66,-7.8 -8.16,-7.74 -9.56,-2.08zm-13.22 -54.98c-1.54,4.64 7.97,9.39 9.57,2.08 1.65,-7.8 -8.17,-7.74 -9.57,-2.08zm-172.37 -392.59c-2.54,7.61 13.06,15.39 15.67,3.4 2.7,-12.76 -13.38,-12.67 -15.67,-3.4zm114.97 95.15c-1.56,4.64 7.97,9.39 9.56,2.08 1.65,-7.79 -8.16,-7.73 -9.56,-2.08zm6.22 -41.72c-1.14,3.42 5.87,6.92 7.05,1.53 1.21,-5.73 -6.02,-5.69 -7.05,-1.53zm-72.94 60.73c-3.24,9.71 16.67,19.63 20,4.34 3.45,-16.29 -17.07,-16.17 -20,-4.34zm5.08 -55.81c-2.15,6.43 11.03,13 13.23,2.88 2.3,-10.79 -11.3,-10.71 -13.23,-2.88zm1.84 -64.17c-1.55,4.64 7.97,9.39 9.56,2.08 1.65,-7.79 -8.17,-7.73 -9.56,-2.08zm-105.74 -24.19c-1.55,4.64 7.97,9.39 9.56,2.08 1.65,-7.8 -8.16,-7.74 -9.56,-2.08z"/>
 </g>
</svg>
