<svg width="30" height="30" viewBox="0 0 30 30" fill="none" xmlns="http://www.w3.org/2000/svg">
<g clip-path="url(#clip0_51_56)">
<path d="M15 1C17.7689 1 20.4757 1.82109 22.778 3.35943C25.0803 4.89777 26.8747 7.08427 27.9343 9.64243C28.9939 12.2006 29.2712 15.0155 28.731 17.7313C28.1908 20.447 26.8574 22.9416 24.8995 24.8995C22.9416 26.8574 20.447 28.1908 17.7313 28.731C15.0155 29.2712 12.2006 28.9939 9.64244 27.9343C7.08427 26.8747 4.89777 25.0803 3.35943 22.778C1.82109 20.4757 1.00001 17.7689 1.00001 15C1.00001 11.287 2.475 7.72601 5.10051 5.1005C7.72602 2.475 11.287 1 15 1ZM15 0C12.0333 0 9.13319 0.879735 6.66645 2.52796C4.19972 4.17618 2.27713 6.51886 1.14181 9.25975C0.00649929 12.0006 -0.290551 15.0166 0.288228 17.9264C0.867006 20.8361 2.29562 23.5088 4.3934 25.6066C6.49119 27.7044 9.16394 29.133 12.0737 29.7118C14.9834 30.2906 17.9994 29.9935 20.7403 28.8582C23.4812 27.7229 25.8238 25.8003 27.4721 23.3336C29.1203 20.8668 30 17.9667 30 15C30 11.0218 28.4197 7.20644 25.6066 4.3934C22.7936 1.58035 18.9783 0 15 0Z" fill="#251433"/>
<path d="M15.59 25.5C14.9516 25.5115 14.318 25.3889 13.73 25.14C13.67 25.14 12.33 24.49 10.83 23.58C9.33 22.67 8.14 21.77 8.09 21.73C7.65018 21.367 7.28073 20.9264 7 20.43L7.86 19.92C8.08428 20.3023 8.3756 20.641 8.72 20.92C8.72 20.92 9.91 21.83 11.37 22.71C12.83 23.59 14.16 24.21 14.18 24.22C15.1037 24.575 16.1263 24.575 17.05 24.22C17.05 24.22 18.4 23.59 19.86 22.71C21.32 21.83 22.5 20.93 22.51 20.92C23.2875 20.2369 23.8007 19.3026 23.96 18.28C23.96 18.28 24.12 16.74 24.12 14.98C24.12 13.22 23.97 11.69 23.96 11.68C23.7998 10.6577 23.2868 9.72365 22.51 9.04001C22.51 9.04001 21.32 8.13001 19.86 7.25001C18.4 6.37001 17 5.77001 17 5.77001C16.0763 5.41499 15.0537 5.41499 14.13 5.77001C14.13 5.77001 12.78 6.40001 11.33 7.28001C9.88 8.16001 8.71 9.05001 8.7 9.06001C8.35591 9.3393 8.06464 9.67799 7.84 10.06L7 9.57001C7.2863 9.07167 7.66268 8.63086 8.11 8.27001C8.11 8.27001 9.34 7.33001 10.85 6.42001C12.36 5.51001 13.7 4.89001 13.75 4.86001C14.9409 4.38423 16.2691 4.38423 17.46 4.86001C17.52 4.86001 18.85 5.51001 20.36 6.42001C21.87 7.33001 23 8.23001 23.09 8.27001C24.0863 9.12063 24.7401 10.3038 24.93 11.6C24.93 11.66 25.09 13.19 25.09 15C25.09 16.81 24.94 18.34 24.93 18.4C24.7401 19.6962 24.0863 20.8794 23.09 21.73C23.09 21.73 21.86 22.67 20.35 23.58C18.84 24.49 17.5 25.11 17.45 25.14C16.862 25.3889 16.2284 25.5115 15.59 25.5Z" fill="#251433"/>
<path d="M4 12H8V13H5V18H4V12Z" fill="#251433"/>
<path d="M12 13C12.3956 13 12.7822 13.1173 13.1111 13.3371C13.44 13.5568 13.6964 13.8692 13.8478 14.2346C13.9991 14.6001 14.0387 15.0022 13.9616 15.3902C13.8844 15.7781 13.6939 16.1345 13.4142 16.4142C13.1345 16.6939 12.7781 16.8844 12.3902 16.9616C12.0022 17.0387 11.6001 16.9991 11.2346 16.8478C10.8692 16.6964 10.5568 16.44 10.3371 16.1111C10.1173 15.7822 10 15.3956 10 15C10 14.4696 10.2107 13.9609 10.5858 13.5858C10.9609 13.2107 11.4696 13 12 13ZM12 12C11.4067 12 10.8266 12.1759 10.3333 12.5056C9.83994 12.8352 9.45543 13.3038 9.22836 13.8519C9.0013 14.4001 8.94189 15.0033 9.05765 15.5853C9.1734 16.1672 9.45912 16.7018 9.87868 17.1213C10.2982 17.5409 10.8328 17.8266 11.4147 17.9424C11.9967 18.0581 12.5999 17.9987 13.1481 17.7716C13.6962 17.5446 14.1648 17.1601 14.4944 16.6667C14.8241 16.1734 15 15.5933 15 15C15 14.2044 14.6839 13.4413 14.1213 12.8787C13.5587 12.3161 12.7957 12 12 12Z" fill="#251433"/>
<path d="M19 18C18.5243 17.9989 18.0556 17.8847 17.6326 17.6668C17.2097 17.4489 16.8447 17.1335 16.5677 16.7466C16.2907 16.3598 16.1096 15.9127 16.0395 15.4421C15.9694 14.9715 16.0122 14.491 16.1644 14.0403C16.3166 13.5895 16.5739 13.1814 16.9149 12.8496C17.2559 12.5179 17.671 12.272 18.1258 12.1323C18.5806 11.9926 19.0621 11.963 19.5305 12.0461C19.999 12.1291 20.441 12.3224 20.82 12.61L20.21 13.4C19.8611 13.1383 19.4362 12.9978 19 13C18.6784 13.0003 18.3617 13.0782 18.0766 13.2269C17.7915 13.3757 17.5465 13.5911 17.3624 13.8547C17.1782 14.1183 17.0603 14.4225 17.0188 14.7413C16.9772 15.0602 17.0131 15.3844 17.1235 15.6865C17.2338 15.9885 17.4154 16.2595 17.6528 16.4764C17.8902 16.6933 18.1764 16.8498 18.4871 16.9326C18.7979 17.0154 19.124 17.022 19.4379 16.9519C19.7517 16.8818 20.044 16.7371 20.29 16.53L20.93 17.3C20.389 17.753 19.7057 18.0009 19 18Z" fill="#251433"/>
</g>
<defs>
<clipPath id="clip0_51_56">
<rect width="30" height="30" fill="white"/>
</clipPath>
</defs>
</svg>
