<svg width="800" height="800" viewBox="0 0 800 800" fill="none" xmlns="http://www.w3.org/2000/svg">
<path d="M482.4 697.9C473.36 697.934 464.494 695.411 456.827 690.621C449.159 685.832 443.002 678.972 439.067 670.833L343.333 478.1C338.732 468.826 331.214 461.32 321.933 456.733L129.133 361.033C120.504 356.74 113.341 349.985 108.551 341.621C103.76 333.257 101.558 323.661 102.221 314.045C102.885 304.43 106.385 295.227 112.279 287.6C118.173 279.974 126.196 274.267 135.333 271.2L633.733 104.533C642.313 101.656 651.524 101.227 660.334 103.295C669.143 105.364 677.202 109.847 683.604 116.242C690.006 122.638 694.498 130.691 696.576 139.498C698.654 148.305 698.235 157.518 695.367 166.1L528.7 664.5C525.731 673.689 520.056 681.769 512.42 687.68C504.783 693.592 495.54 697.061 485.9 697.633C484.767 697.867 483.567 697.9 482.4 697.9ZM649.3 135.433C647.613 135.441 645.937 135.711 644.333 136.233L145.933 302.9C143.049 303.861 140.516 305.658 138.655 308.062C136.794 310.466 135.69 313.369 135.482 316.402C135.275 319.435 135.974 322.461 137.491 325.096C139.008 327.731 141.273 329.856 144 331.2L336.667 426.833C352.53 434.693 365.402 447.506 373.333 463.333L469 656.067C470.286 658.847 472.404 661.159 475.061 662.682C477.719 664.204 480.785 664.863 483.833 664.567C486.844 664.375 489.727 663.28 492.105 661.425C494.484 659.569 496.248 657.04 497.167 654.167L663.833 155.733C664.593 153.435 664.801 150.989 664.439 148.595C664.076 146.201 663.155 143.927 661.749 141.956C660.343 139.985 658.492 138.373 656.346 137.251C654.201 136.13 651.821 135.53 649.4 135.5L649.3 135.433Z" fill="#251433"/>
</svg>
