<svg width="668" height="648" viewBox="0 0 668 648" fill="none" xmlns="http://www.w3.org/2000/svg">
<path d="M510.375 9.00002L493.95 0.775024L480.625 7.42502V7.45002L334.025 80.75L174.075 0.775024L0.799988 87.4V647.175L174.075 560.55L334.025 640.525L493.975 560.55L667.25 647.175V87.4L510.4 8.97502L510.375 9.00002ZM160.725 537.425L27.45 604.075V103.9L160.725 37.25V537.425ZM320.675 604.075L187.4 537.425V37.25L320.675 103.9V604.075ZM480.6 537.425L347.325 604.075V103.9L480.6 37.25V537.425ZM640.55 604.075L507.275 537.425V37.25L640.55 103.9V604.075Z" fill="#251433"/>
</svg>
