<svg width="230" height="230" viewBox="0 0 230 230" fill="none" xmlns="http://www.w3.org/2000/svg">
<g clip-path="url(#clip0_118_17)">
<path fill-rule="evenodd" clip-rule="evenodd" d="M114.5 37C106.22 37 98.125 39.4554 91.2401 44.0558C84.3552 48.6562 78.989 55.1949 75.8202 62.845C72.6514 70.4951 71.8223 78.9131 73.4378 87.0344C75.0532 95.1558 79.0406 102.616 84.8958 108.471C90.7509 114.326 98.2109 118.313 106.332 119.929C114.454 121.544 122.872 120.715 130.522 117.546C138.172 114.378 144.71 109.011 149.311 102.127C153.911 95.2416 156.367 87.1471 156.367 78.8667C156.367 67.7629 151.956 57.114 144.104 49.2625C136.253 41.4109 125.604 37 114.5 37ZM114.5 47.4667C120.71 47.4667 126.781 49.3082 131.945 52.7585C137.109 56.2088 141.133 61.1128 143.51 66.8504C145.886 72.588 146.508 78.9015 145.297 84.9925C144.085 91.0835 141.095 96.6784 136.703 101.07C132.312 105.461 126.717 108.452 120.626 109.663C114.535 110.875 108.221 110.253 102.484 107.876C96.7461 105.5 91.8421 101.475 88.3918 96.3116C84.9416 91.1479 83.1 85.077 83.1 78.8667C83.1 70.5389 86.4082 62.5522 92.2968 56.6635C98.1855 50.7749 106.172 47.4667 114.5 47.4667Z" fill="#251433"/>
<path fill-rule="evenodd" clip-rule="evenodd" d="M114.5 132.247C84.895 132.247 59.2465 138.396 46.4667 147.005C43.5221 148.613 41.0238 150.928 39.1967 153.742C37.3695 156.555 36.271 159.779 36 163.123C36.271 166.467 37.3695 169.691 39.1967 172.505C41.0238 175.319 43.5221 177.634 46.4667 179.242C59.2465 187.851 84.895 194 114.5 194C144.105 194 169.754 187.851 182.533 179.242C185.478 177.634 187.976 175.319 189.803 172.505C191.63 169.691 192.729 166.467 193 163.123C192.729 159.779 191.63 156.555 189.803 153.742C187.976 150.928 185.478 148.613 182.533 147.005C169.754 138.396 144.105 132.247 114.5 132.247ZM114.5 142.713C133.943 142.089 153.305 145.491 171.371 152.704C174.652 154.14 177.654 156.146 180.236 158.628C180.947 159.142 181.526 159.818 181.925 160.599C182.325 161.381 182.533 162.246 182.533 163.123C182.533 164.001 182.325 164.866 181.925 165.648C181.526 166.429 180.947 167.105 180.236 167.619C177.654 170.101 174.652 172.107 171.371 173.543C153.305 180.756 133.943 184.157 114.5 183.533C95.0572 184.157 75.6954 180.756 57.6294 173.543C54.3479 172.107 51.3465 170.101 48.7641 167.619C48.0529 167.105 47.4739 166.429 47.0745 165.648C46.6752 164.866 46.467 164.001 46.467 163.123C46.467 162.246 46.6752 161.381 47.0745 160.599C47.4739 159.818 48.0529 159.142 48.7641 158.628C51.3465 156.146 54.3479 154.14 57.6294 152.704C75.6954 145.491 95.0572 142.089 114.5 142.713Z" fill="#251433"/>
</g>
<circle cx="115" cy="115" r="112.5" stroke="#251433" stroke-width="5"/>
<defs>
<clipPath id="clip0_118_17">
<rect width="157" height="157" fill="white" transform="translate(36 37)"/>
</clipPath>
</defs>
</svg>
